<?xml version="1.0" standalone="no"?>
<!DOCTYPE svg PUBLIC "-//W3C//DTD SVG 20010904//EN"
 "http://www.w3.org/TR/2001/REC-SVG-20010904/DTD/svg10.dtd">
<svg version="1.0" xmlns="http://www.w3.org/2000/svg"
 width="500.000000pt" height="500.000000pt" viewBox="0 0 500.000000 500.000000"
 preserveAspectRatio="xMidYMid meet">
<metadata>
Created by potrace 1.15, written by Peter Selinger 2001-2017
</metadata>
<g transform="translate(0.000000,500.000000) scale(0.100000,-0.100000)"
fill="#000000" stroke="none">
<path d="M0 2500 l0 -2500 2500 0 2500 0 0 2500 0 2500 -2500 0 -2500 0 0
-2500z m2649 770 c139 -39 221 -95 341 -232 159 -183 212 -370 161 -570 -46
-179 -157 -319 -315 -396 -104 -51 -166 -62 -358 -63 -148 0 -182 2 -238 20
-184 58 -331 209 -386 396 -24 81 -24 239 0 320 10 33 46 112 79 175 103 193
243 313 415 354 87 22 215 20 301 -4z"/>
<path d="M2373 3235 c-89 -19 -184 -68 -245 -125 l-53 -49 65 34 c37 19 93 41
125 50 33 8 89 25 125 37 69 23 222 31 305 15 38 -7 39 -7 15 7 -35 20 -169
46 -227 45 -26 0 -76 -7 -110 -14z"/>
<path d="M2465 3171 l-30 -9 35 -1 c53 -2 137 -27 210 -62 134 -66 275 -246
310 -398 16 -68 7 -196 -19 -280 -24 -76 -14 -71 28 13 86 174 76 374 -27 546
-71 118 -210 189 -387 195 -49 2 -103 0 -120 -4z"/>
<path d="M2282 3099 c-58 -29 -142 -107 -187 -174 -34 -52 -85 -171 -85 -198
1 -11 12 7 99 162 58 104 174 195 278 220 l38 9 -50 1 c-33 1 -65 -6 -93 -20z"/>
<path d="M2363 3061 c-56 -21 -126 -65 -158 -101 l-20 -23 42 22 c23 11 66 26
95 32 29 6 82 20 117 31 51 17 80 20 145 15 45 -3 90 -8 101 -12 20 -7 20 -7
0 9 -56 46 -228 60 -322 27z"/>
<path d="M2093 3016 c-114 -83 -149 -149 -160 -292 -4 -57 -1 -102 11 -155 25
-111 34 -111 28 0 -3 59 0 127 7 163 16 83 68 189 131 266 28 34 49 62 47 62
-3 0 -31 -20 -64 -44z"/>
<path d="M2500 3000 c0 -5 7 -10 16 -10 36 0 142 -62 192 -112 78 -77 115
-161 120 -268 2 -47 0 -102 -6 -123 -13 -46 -10 -46 16 -4 84 143 63 362 -43
455 -51 45 -133 72 -220 72 -43 0 -75 -4 -75 -10z"/>
<path d="M2325 2928 c-60 -50 -82 -77 -116 -144 -53 -107 -55 -240 -5 -347 64
-134 300 -191 460 -111 52 25 63 36 90 89 29 56 31 67 31 165 0 99 -2 109 -33
172 -37 75 -97 135 -177 176 -38 19 -69 26 -130 29 -79 4 -81 4 -120 -29z"/>
<path d="M2229 2915 c-67 -35 -116 -94 -125 -150 -10 -70 0 -185 22 -234 l19
-43 0 113 c0 136 14 180 86 275 26 35 47 64 46 64 -1 -1 -23 -12 -48 -25z"/>
<path d="M3085 2830 c17 -74 17 -200 1 -273 -29 -130 -75 -209 -184 -315 -53
-51 -129 -115 -170 -143 -81 -54 -81 -55 -6 -35 197 52 357 229 401 441 19 95
9 218 -26 300 -12 28 -19 39 -16 25z"/>
<path d="M2928 2649 c-7 -112 -47 -190 -151 -296 -45 -46 -102 -98 -127 -115
l-45 -30 37 5 c102 15 234 111 283 207 21 41 32 202 18 265 -9 38 -10 37 -15
-36z"/>
<path d="M2041 2657 c-44 -199 91 -402 297 -446 83 -17 90 -13 31 16 -31 16
-91 63 -142 112 -109 105 -155 189 -166 302 l-7 74 -13 -58z"/>
<path d="M1876 2640 c-8 -70 4 -168 29 -241 53 -149 192 -283 343 -329 90 -28
97 -25 27 13 -39 20 -99 71 -171 142 -97 96 -117 121 -152 195 -39 81 -59 157
-65 245 -2 34 -4 31 -11 -25z"/>
<path d="M2091 2300 c86 -116 287 -193 458 -175 122 13 246 66 289 125 28 38
23 38 -30 0 -57 -40 -146 -70 -205 -70 -27 0 -82 -5 -125 -12 -132 -20 -252
19 -355 114 -47 43 -53 46 -32 18z"/>
</g>
</svg>
